<svg width="32" height="32" viewBox="0 0 32 32" fill="currentColor" xmlns="http://www.w3.org/2000/svg">
<path d="M4 10C4 9.44771 4.44772 9 5 9H27C27.5523 9 28 9.44771 28 10C28 10.5523 27.5523 11 27 11H5C4.44772 11 4 10.5523 4 10Z"/>
<path d="M8 16C8 15.4477 8.44771 15 9 15H27C27.5523 15 28 15.4477 28 16C28 16.5523 27.5523 17 27 17H9C8.44772 17 8 16.5523 8 16Z"/>
<path d="M13 21C12.4477 21 12 21.4477 12 22C12 22.5523 12.4477 23 13 23H27C27.5523 23 28 22.5523 28 22C28 21.4477 27.5523 21 27 21H13Z"/>
</svg>
